<?xml version="1.0" encoding="utf-8"?>
<svg version="1.1" id="Layer_1" xmlns="http://www.w3.org/2000/svg" xmlns:xlink="http://www.w3.org/1999/xlink" x="0px" y="0px"
	 viewBox="0 0 1000 1000" style="enable-background:new 0 0 1000 1000;" xml:space="preserve">
<style type="text/css">
	.st0{fill:#FFFFFF;}
</style>
<path class="st0" d="M969.97,654.09c-7.85,0-13.54,0-19.23,0c-125.61,0-251.23-0.02-376.84,0c-35.31,0.01-45.85,8.9-48.52,43.84
	c-1.12,14.66-0.01,29.73,2.03,44.34c2.66,19.09,13.66,28.18,33.04,29.88c4.78,0.42,9.62,0.25,14.43,0.25
	c125.13,0.02,250.27,0.02,375.4,0.02c5.74,0,11.48,0,18.76,0c-5.23,14.8-15.72,21.26-28.69,23.89c-7.93,1.61-16.26,1.73-24.42,1.73
	c-271.44,0.08-542.88,0.06-814.33,0.06c-44.99,0-67.54-18.51-71-63.2c-1.7-21.94,0.45-44.97,5.46-66.43
	c5.77-24.72,24.5-38.09,50.64-39.46c4.8-0.25,9.61-0.48,14.42-0.48c271.92-0.02,543.85-0.03,815.77,0.02
	c6.24,0,12.51,0.35,18.72,0.92C950.56,630.84,961.77,637.85,969.97,654.09z M80.51,649.85c-24.05,27.98-19.19,111.29,0.45,126.42
	c2.86-1.98,5.89-4.07,8.79-6.07C73.03,731.7,73.26,693.88,89.82,656C86.49,653.8,83.77,652,80.51,649.85z M462.74,649.85
	c-24.05,27.98-19.19,111.29,0.45,126.42c2.86-1.98,5.89-4.07,8.79-6.07c-16.72-38.49-16.49-76.31,0.07-114.19
	C468.72,653.8,466,652,462.74,649.85z"/>
<path class="st0" d="M886.81,358.27c3.81,0.38,6.36,0.67,8.19,0.99c9.33,1.64,12.7,8.3,12.31,13.87
	c-0.33,4.77-3.3,12.88-12.11,12.73c-14.63-0.26-19.18,6.72-24.83,17.84c-33.34,65.68-103.76,101.33-176.29,90.29
	c-70.98-10.8-128.82-68.38-140.25-139.84c-1.06-6.6-1.45-13.38-1.4-20.07c0.3-40.82-28.78-59.83-54.55-59.72
	c-31.76,0.13-52.93,23.32-54.1,60.07c-0.95,29.98-9.1,57.76-25.52,82.68c-34.91,53.01-84.66,80.45-148.28,78.1
	c-67.89-2.51-116.8-36.47-147.18-96.86c-3.23-6.42-4.96-13.13-14.91-11.88c-7.28,0.91-18.08-2.33-18.81-12.62
	c-0.74-10.55,10.36-14.96,18.66-15.19c-5.62-105.63,38.39-176.74,146.12-196.67c63.93-11.83,150.24,19.64,185.24,119.99
	c46.5-36.39,77.24-36.43,118.22,1.29c14.18-43.79,39.57-78.45,79.6-101.05c39.93-22.54,82.43-27.93,126.72-16.36
	c42.24,11.03,75.14,35.38,98.91,71.93C886.4,274.41,892.18,314.89,886.81,358.27z M270.65,476.9
	c86.72,0.01,155.09-68.47,154.38-149.63c-0.64-74.12-59.35-140.08-130.55-146.7c-81.05-7.54-151.14,42.51-165.19,119.4
	c-4.11,22.52-8.98,46.33,8.69,66.77c1.77,2.05,2.26,6.07,1.3,9.59c-1.43,5.21,0.02,11.42,2.34,15.95
	C169.54,446.61,214.96,473.84,270.65,476.9z M869.67,327.63c-0.23-91.62-84.58-162.3-174.65-146.35
	C634.5,192,586.22,239.11,573.83,299.52c-11.94,58.23,14.43,119.75,65.67,153.21c51.04,33.33,118.38,32.69,167.69-4.74
	c25.41-19.29,51.94-40.26,49.64-78.15c-0.08-1.29,0.16-3.68,0.7-5C863.48,353.64,868.27,359.14,869.67,327.63z"/>
</svg>
